<svg xmlns="http://www.w3.org/2000/svg" xmlns:xlink="http://www.w3.org/1999/xlink" version="1.1" id="vettori" x="0px" y="0px" viewBox="0 0 355 63.5" style="enable-background:new 0 0 355 63.5;" xml:space="preserve">
	<polygon fill="#6EC6D6" points="0.8,47.5 15.4,63 355,47.3 " />
	<rect x="81.2" y="26.4" fill="#6EC6D6" width="7.8" height="13.4" />
	<rect x="107.6" y="1" fill="#6EC6D6" width="7.8" height="38.8" />
	<polygon fill="#6EC6D6" points="89.2,1 79.5,1 107.6,39.8 114,35.2 " />
	<rect x="282.4" y="26.4" fill="#6EC6D6" width="7.8" height="13.4" />
	<rect x="308.8" y="1.1" fill="#6EC6D6" width="7.8" height="38.8" />
	<polygon fill="#6EC6D6" points="290.4,1.1 280.7,1.1 308.8,39.8 315.2,35.2 " />
	<path fill="#6EC6D6" d="M257,1c-10.7,0-19.4,8.7-19.4,19.4s8.7,19.4,19.4,19.4s19.4-8.7,19.4-19.4c0,0,0,0,0,0C276.4,9.7,267.7,1,257,1  z M257,32c-6.5,0-11.7-5.2-11.7-11.7c0-6.5,5.2-11.7,11.7-11.7s11.7,5.2,11.7,11.7C268.7,26.8,263.5,32,257,32z" />
	<rect x="0.8" y="1" fill="#053559" width="10.1" height="38.8" />
	<path fill="#053559" d="M180.5,1.1h-7.8v15.5H151V1.1h-7.8v38.8h7.8V24.3h21.7v15.5h7.8V1.1z" />
	<path fill="#053559" d="M73.4,31.3c-2.5,2.5-5.8,3.7-9.3,3.6c-6.8,0-12.7-4.8-14.1-11.4h35.5V21c0.1-3-0.6-6-1.8-8.7c-2.4-5.6-7.7-9.4-13.8-9.7c-0.5,0-1.1,0-1.6,0h-0.2c-10.1,0-18.3,8.2-18.3,18.3s8.2,18.3,18.3,18.3c5.1,0.1,10-1.8,13.6-5.3L73.4,31.3z M49.4,16.6c1.2-6.1,6.6-10.5,12.9-10.4h6.4c6.3,0,11.6,4.5,12.7,10.4H49.4z" />
	<path fill="#053559" d="M36.9,20.5c0,6.4-5.2,11.6-11.6,11.7c-0.1,0-0.2,0-0.3,0H10.9V1.1H3.1v38.8h22c10.6,0,19.5-8.7,19.5-19.4C44.6,20.4,39.8,20.5,36.9,20.5z" />
	<path fill="#053559" d="M202.7,32.2h-15V1.1h-7.8v38.8h22.8V32.2z" />
	<path fill="#053559" d="M225.3,0.9c-10.7,0-19.4,8.7-19.4,19.4s8.7,19.4,19.4,19.4s19.4-8.7,19.4-19.4C244.7,9.7,236.1,0.9,225.3,0.9C225.3,0.9,225.3,0.9,225.3,0.9z M225.3,32c-6.5,0-11.7-5.2-11.7-11.7s5.2-11.7,11.7-11.7S237,13.8,237,20.3C237,26.8,231.8,32,225.3,32z" />
	<path fill="#053559" d="M344.9,11.4c-1.5-5.7-7-9.5-13.2-8.8c-0.5,0.1-1,0.1-1.5,0.3c-4.8,1.1-9.1,4.5-10.8,9.1v0.1h-0.1c-1.6-5.9-7.5-9.5-13.4-8.4c-4.6,0.9-8.5,4.3-9.8,8.7V1.1h-7.8v38.8h7.8V25c0-6.5,4.9-11.9,11.2-12.4c5.6-0.5,10.7,3.7,11.2,9.3c0,0.4,0.1,0.9,0.1,1.3v16.5h7.8V23.7c0-7,5.7-12.7,12.6-12.6c4.5,0,8.7,2.4,10.9,6.4c0.5,0.8,0.8,1.6,1,2.5c0.3,1.1,0.4,2.3,0.4,3.5v16.5h7.8V23.5C354.9,18.4,351.1,13.1,344.9,11.4z" />
	<text transform="matrix(1 0 0 1 119.58 21.36)" fill="#053559" font-family="'MyriadPro-Regular'" font-size="14px"> </text>
</svg>